<svg viewBox="0 0 64 64" xmlns="http://www.w3.org/2000/svg">
  <defs>
    <linearGradient id="grad" x1="0%" y1="0%" x2="100%" y2="100%">
      <stop offset="0%" style="stop-color:#f59e0b"/>
      <stop offset="50%" style="stop-color:#d97706"/>
      <stop offset="100%" style="stop-color:#b45309"/>
    </linearGradient>
    <linearGradient id="crown" x1="0%" y1="0%" x2="0%" y2="100%">
      <stop offset="0%" style="stop-color:#fcd34d"/>
      <stop offset="100%" style="stop-color:#f59e0b"/>
    </linearGradient>
  </defs>
  <!-- Background -->
  <rect width="64" height="64" rx="14" fill="url(#grad)"/>
  <!-- Crown -->
  <path d="M16 28l6-10 10 8 10-8 6 10v8H16v-8z" fill="url(#crown)" stroke="#92400e" stroke-width="1"/>
  <!-- Crown jewels -->
  <circle cx="22" cy="20" r="2.5" fill="#ef4444"/>
  <circle cx="32" cy="16" r="3" fill="#3b82f6"/>
  <circle cx="42" cy="20" r="2.5" fill="#10b981"/>
  <!-- Crown points -->
  <circle cx="22" cy="18" r="1.5" fill="#fcd34d"/>
  <circle cx="32" cy="14" r="1.5" fill="#fcd34d"/>
  <circle cx="42" cy="18" r="1.5" fill="#fcd34d"/>
  <!-- Shopping cart below crown -->
  <path d="M20 42h4l1.5 3h13l-2 8H25l-2-8h-3v-3z" fill="none" stroke="white" stroke-width="2" stroke-linecap="round" stroke-linejoin="round"/>
  <circle cx="28" cy="56" r="2" fill="white"/>
  <circle cx="36" cy="56" r="2" fill="white"/>
</svg>
